# xmcd
#
# Track frame offsets:
#	150
#	9923
#	44787
#	57718
#	83566
#	103809
#	120530
#	127185
#	137824
#	152017
#	188196
#	215348
#	224647
#	253335
#	274133
#	296612
#
# Disc length: 4321 seconds
#
# Revision: 7
# Processed by: cddbd v1.5.2PL0 Copyright (c) Steve Scherf et al.
# Submitted via: EZCDAudioConverter 2.1.7.1
#
DISCID=0210df10
DTITLE=V/A - Ohm 1/3
DYEAR=2000
DGENRE=
TTITLE0=Clara Rockmore - Tchaikovsky: Valse Sentimentale
TTITLE1=Olivier Messiaen - Oraison
TTITLE2=Pierre Schaeffer - Etude Aux Chemins De Fer
TTITLE3=John Cage - Williams Mix
TTITLE4=Herbert Eimert - Klangstudie II
TTITLE5=Otto Luening - Low Speed
TTITLE6=Hugh Le Caine - Dripsody
TTITLE7=Louis and Bebe Barron - Main Title From Forbidden Planet
TTITLE8=Oskar Sala - Concertando Rubato From Elektronische Tanzsuite
TTITLE9=Edgard Varèse - Poem Électronique
TTITLE10=Richard Maxfield - Sine Music (A Swarm Of Butterflies Encountered Ove
TTITLE10=r The Ocean)
TTITLE11=Tod Dockstader - Apocalypse (Part 2)
TTITLE12=Karlheinz Stockhausen - Kontakte [Edit]
TTITLE13=Vladimir Ussachevsky - Wireless Fantasy
TTITLE14=Milton Babbitt - Philomel [Edit]
TTITLE15=MEV (Musica Elettronica Viva) - Spacecraft [Edit]
EXTD=
EXTT0=
EXTT1=
EXTT2=
EXTT3=
EXTT4=
EXTT5=
EXTT6=
EXTT7=
EXTT8=
EXTT9=
EXTT10=
EXTT11=
EXTT12=
EXTT13=
EXTT14=
EXTT15=
PLAYORDER=
